<?xml version="1.0" encoding="UTF-8" standalone="no"?>
<!DOCTYPE svg PUBLIC "-//W3C//DTD SVG 1.1//EN" "http://www.w3.org/Graphics/SVG/1.1/DTD/svg11.dtd">
<svg width="100%" height="100%" viewBox="0 0 2532 1170" version="1.1" xmlns="http://www.w3.org/2000/svg" xmlns:xlink="http://www.w3.org/1999/xlink" xml:space="preserve" xmlns:serif="http://www.serif.com/" style="fill-rule:evenodd;clip-rule:evenodd;stroke-linecap:round;" class="sensipy-logo">
    <rect id="Artboard1" x="0" y="0" width="2532" height="1170" style="fill:none;"/>
    <clipPath id="_clip1">
        <rect id="Artboard11" serif:id="Artboard1" x="0" y="0" width="2532" height="1170"/>
    </clipPath>
    <g clip-path="url(#_clip1)">
        <clipPath id="_clip2">
            <rect x="193.5" y="-303.945" width="2145" height="2145"/>
        </clipPath>
        <g clip-path="url(#_clip2)">
            <g>
                <path d="M206.906,740.409C246.008,735.382 310.805,667.68 394.594,716.278C478.383,764.875 519.719,979.822 609.094,973.678C698.469,967.533 734.219,714.155 823.594,686.784C912.969,659.413 948.719,850.675 1038.094,842.296C1127.469,833.917 1163.219,651.592 1252.594,646.565C1341.969,641.538 1377.719,813.696 1467.094,818.165C1556.469,822.634 1592.219,636.734 1681.594,668.015C1770.969,699.296 1806.719,1001.831 1896.094,968.315C1985.469,934.799 2021.219,504.347 2110.594,507.14C2199.969,509.933 2280.406,882.85 2325.094,981.721" style="fill:none;fill-rule:nonzero;stroke:url(#_Linear3);stroke-width:13.41px;"/>
                <path d="M206.906,820.846C246.008,815.819 310.805,748.117 394.594,796.715C478.383,845.313 519.719,1060.26 609.094,1054.115C698.469,1047.971 734.219,794.592 823.594,767.221C912.969,739.85 948.719,931.113 1038.094,922.734C1127.469,914.355 1163.219,732.03 1252.594,727.003C1341.969,721.975 1377.719,894.134 1467.094,898.603C1556.469,903.071 1592.219,717.171 1681.594,748.453C1770.969,779.734 1806.719,1082.268 1896.094,1048.753C1985.469,1015.237 2021.219,584.785 2110.594,587.578C2199.969,590.371 2280.406,963.288 2325.094,1062.159" style="fill:none;fill-rule:nonzero;stroke:url(#_Linear4);stroke-width:13.41px;"/>
                <path d="M206.906,901.284C246.008,896.257 310.805,828.555 394.594,877.153C478.383,925.75 519.719,1140.697 609.094,1134.553C698.469,1128.408 734.219,875.03 823.594,847.659C912.969,820.288 948.719,1011.55 1038.094,1003.171C1127.469,994.792 1163.219,812.467 1252.594,807.44C1341.969,802.413 1377.719,974.571 1467.094,979.04C1556.469,983.509 1592.219,797.609 1681.594,828.89C1770.969,860.171 1806.719,1162.706 1896.094,1129.19C1985.469,1095.674 2021.219,665.222 2110.594,668.015C2199.969,670.808 2280.406,1043.725 2325.094,1142.596" style="fill:none;fill-rule:nonzero;stroke:url(#_Linear5);stroke-width:13.41px;"/>
            </g>
        </g>
        <path class="text" d="M396.902,540.514C396.902,560.006 410.303,577.976 434.059,591.073C457.816,604.169 489.492,611.479 523.299,611.479C603.402,611.479 652.438,573.407 652.438,512.188C652.438,465.284 625.94,437.263 568.985,424.167L510.507,410.766C480.659,403.76 466.953,391.273 466.953,370.562C466.953,344.978 487.969,328.836 522.69,328.836C547.056,328.836 564.721,336.145 586.955,356.247C600.965,368.125 607.666,371.171 617.108,371.171C633.25,371.171 643.91,361.425 643.91,345.892C643.91,328.531 631.118,310.866 609.493,298.378C586.65,284.672 557.411,277.363 526.04,277.363C450.202,277.363 401.47,316.043 401.47,375.131C401.47,421.426 428.882,450.055 487.055,463.152L542.487,475.944C571.422,482.34 586.65,497.569 586.65,517.975C586.65,543.864 563.807,559.702 526.954,559.702C497.715,559.702 474.872,549.955 453.248,529.549C440.76,517.671 433.45,513.407 424.009,513.407C407.562,513.407 396.902,524.067 396.902,540.514Z" style="fill-rule:nonzero;fill:currentColor;"/>
        <path class="text" d="M709.393,467.721C709.393,557.265 765.435,611.479 856.197,611.479C898.533,611.479 936.3,599.601 957.011,579.803C969.498,569.753 976.808,556.96 976.808,545.082C976.808,529.549 966.757,518.889 952.138,518.889C941.478,518.889 936.604,522.239 920.767,535.64C905.233,549.651 886.045,556.96 860.157,556.96C809.293,556.96 778.227,525.285 778.227,475.64L778.227,460.411L950.006,460.411C976.808,460.411 985.336,449.446 985.336,413.811C985.336,334.622 928.99,277.363 849.497,277.363C766.348,277.363 709.393,336.145 709.393,422.035L709.393,467.721ZM778.227,413.202L778.227,412.288C778.227,364.166 806.856,331.577 850.41,331.577C892.746,331.577 919.853,363.252 919.853,412.288L919.853,413.202L778.227,413.202Z" style="fill-rule:nonzero;fill:currentColor;"/>
        <path class="text" d="M1331.94,571.275L1331.94,387.923C1331.94,318.48 1292.345,278.581 1223.512,278.581C1175.389,278.581 1139.754,302.033 1126.658,341.323L1123.307,341.323L1123.307,315.434C1122.698,293.201 1110.82,280.713 1090.414,280.713C1069.703,280.713 1056.911,294.419 1056.911,317.262L1056.911,570.971C1056.911,594.727 1069.093,608.433 1090.718,608.433C1112.038,608.433 1124.526,594.727 1124.526,570.971L1124.526,425.994C1124.526,370.257 1154.069,336.45 1200.669,336.45C1241.482,336.45 1264.02,361.425 1264.02,406.806L1264.02,570.971C1264.02,594.727 1276.507,608.433 1298.132,608.433C1319.452,608.433 1331.94,595.032 1331.94,571.275Z" style="fill-rule:nonzero;fill:currentColor;"/>
        <path class="text" d="M1397.423,540.514C1397.423,560.006 1410.824,577.976 1434.581,591.073C1458.337,604.169 1490.013,611.479 1523.82,611.479C1603.923,611.479 1652.959,573.407 1652.959,512.188C1652.959,465.284 1626.461,437.263 1569.506,424.167L1511.028,410.766C1481.18,403.76 1467.475,391.273 1467.475,370.562C1467.475,344.978 1488.49,328.836 1523.211,328.836C1547.577,328.836 1565.242,336.145 1587.476,356.247C1601.487,368.125 1608.187,371.171 1617.629,371.171C1633.771,371.171 1644.431,361.425 1644.431,345.892C1644.431,328.531 1631.639,310.866 1610.015,298.378C1587.172,284.672 1557.933,277.363 1526.562,277.363C1450.723,277.363 1401.991,316.043 1401.991,375.131C1401.991,421.426 1429.403,450.055 1487.576,463.152L1543.009,475.944C1571.943,482.34 1587.172,497.569 1587.172,517.975C1587.172,543.864 1564.329,559.702 1527.475,559.702C1498.236,559.702 1475.393,549.955 1453.769,529.549C1441.281,517.671 1433.972,513.407 1424.53,513.407C1408.083,513.407 1397.423,524.067 1397.423,540.514Z" style="fill-rule:nonzero;fill:currentColor;"/>
        <path class="text" d="M1719.661,202.438C1719.661,224.672 1737.021,240.814 1759.56,240.814C1783.012,240.814 1800.068,224.672 1800.068,202.438C1800.068,180.509 1783.012,164.671 1759.56,164.671C1737.021,164.671 1719.661,180.509 1719.661,202.438ZM1793.672,570.971L1793.672,318.175C1793.672,293.505 1780.271,280.713 1759.864,280.713C1739.763,280.713 1726.057,293.201 1726.057,318.175L1726.057,570.971C1726.057,595.641 1739.458,608.433 1759.864,608.433C1780.271,608.433 1793.672,595.946 1793.672,570.971Z" style="fill-rule:nonzero;fill:currentColor;"/>
        <path class="text" d="M1951.577,364.34L1951.577,290.311L1954.019,290.311C1962.85,311.355 1983.33,323.38 2010.574,323.38C2057.359,323.38 2085.543,289.936 2085.543,234.508L2085.543,206.888C2085.543,151.46 2057.735,118.204 2011.326,118.204C1983.33,118.204 1961.347,131.544 1953.268,152.963L1950.825,152.963L1950.825,143.381C1949.698,127.974 1941.055,119.519 1926.399,119.519C1910.804,119.519 1902.162,129.289 1902.162,146.951L1902.162,364.34C1902.162,381.814 1910.992,391.585 1926.775,391.585C1942.746,391.585 1951.577,381.814 1951.577,364.34ZM1951.577,235.259L1951.577,208.767C1951.577,176.825 1967.547,157.848 1993.476,157.848C2019.969,157.848 2035,177.389 2035,211.773L2035,229.811C2035,264.007 2019.969,283.735 1993.852,283.735C1968.487,283.735 1951.577,264.57 1951.577,235.259Z" style="fill-rule:nonzero;fill:currentColor;"/>
        <path class="text" d="M2112.599,369.977C2112.599,375.238 2114.478,379.747 2118.048,383.317C2123.873,388.954 2134.019,391.96 2146.983,391.96C2187.004,391.96 2210.114,373.547 2225.709,328.829L2285.646,156.909C2287.713,151.084 2288.465,147.139 2288.465,143.381C2288.465,130.041 2278.507,120.27 2264.979,120.27C2252.014,120.27 2243.747,127.974 2239.613,143.945L2200.532,279.79L2198.465,279.79L2159.76,143.945C2155.814,127.974 2147.359,120.27 2134.019,120.27C2119.927,120.27 2109.593,130.229 2109.593,143.569C2109.593,147.139 2110.157,151.46 2112.035,156.909L2170.657,323.192C2170.657,324.508 2168.778,332.775 2168.215,333.902C2164.081,346.679 2154.687,354.946 2143.413,354.946C2137.776,354.946 2134.394,354.006 2130.449,354.006C2119.739,354.006 2112.599,360.77 2112.599,369.977Z" style="fill-rule:nonzero;fill:currentColor;"/>
    </g>
    <defs>
        <style>
            .text {
                fill: var(--logo-text-color, #000000);
            }
            @media (prefers-color-scheme: dark) {
                .text {
                    fill: var(--logo-text-color, #ffffff);
                }
            }
            :global([data-theme="dark"]) .text,
            :global(.dark) .text,
            :global(html[data-theme="dark"]) .text {
                fill: #ffffff;
            }
        </style>
        <linearGradient id="_Linear3" x1="0" y1="0" x2="1" y2="0" gradientUnits="userSpaceOnUse" gradientTransform="matrix(2118.1875,0,0,-2118.1875,206.90625,744.423971)"><stop offset="0" style="stop-color:rgb(44,136,215);stop-opacity:1"/><stop offset="1" style="stop-color:rgb(243,62,139);stop-opacity:1"/></linearGradient>
        <linearGradient id="_Linear4" x1="0" y1="0" x2="1" y2="0" gradientUnits="userSpaceOnUse" gradientTransform="matrix(2118.1875,0,0,-2118.1875,206.90625,824.861471)"><stop offset="0" style="stop-color:rgb(44,136,215);stop-opacity:1"/><stop offset="1" style="stop-color:rgb(243,62,139);stop-opacity:1"/></linearGradient>
        <linearGradient id="_Linear5" x1="0" y1="0" x2="1" y2="0" gradientUnits="userSpaceOnUse" gradientTransform="matrix(2118.1875,0,0,-2118.1875,206.90625,905.298971)"><stop offset="0" style="stop-color:rgb(44,136,215);stop-opacity:1"/><stop offset="1" style="stop-color:rgb(243,62,139);stop-opacity:1"/></linearGradient>
    </defs>
    <style>
        .sensipy-logo {
            max-width: 100%;
            height: auto;
            color: #000000;
        }
        
        /* Use currentColor which inherits from parent - Starlight will handle dark mode */
        @media (prefers-color-scheme: dark) {
            .sensipy-logo {
                color: #ffffff;
            }
        }
        
        /* Support for Starlight's dark mode classes */
        :global([data-theme="dark"]) .sensipy-logo,
        :global(.dark) .sensipy-logo,
        :global(html[data-theme="dark"]) .sensipy-logo {
            color: #ffffff;
        }
    </style>
</svg>
