<?xml version="1.0" encoding="UTF-8" standalone="no"?>
<!DOCTYPE svg PUBLIC "-//W3C//DTD SVG 1.1//EN" "http://www.w3.org/Graphics/SVG/1.1/DTD/svg11.dtd">
<svg width="100%" height="100%" viewBox="0 0 2532 1170" version="1.1" xmlns="http://www.w3.org/2000/svg" xmlns:xlink="http://www.w3.org/1999/xlink" xml:space="preserve" xmlns:serif="http://www.serif.com/" style="fill-rule:evenodd;clip-rule:evenodd;stroke-linecap:round;">
    <rect id="Artboard1" x="0" y="0" width="2532" height="1170" style="fill:none;"/>
    <clipPath id="_clip1">
        <rect id="Artboard11" serif:id="Artboard1" x="0" y="0" width="2532" height="1170"/>
    </clipPath>
    <g clip-path="url(#_clip1)">
        <g transform="matrix(1.005469,0,0,1.005469,1266,768.555237)">
            <g transform="matrix(1,0,0,1,-1066.666667,-1066.666667)">
                <clipPath id="_clip2">
                    <rect x="0" y="0" width="2133.3333" height="2133.3333"/>
                </clipPath>
                <g clip-path="url(#_clip2)">
                    <g transform="matrix(2.666667,0,0,-2.666667,-13.333333,1225.340047)">
                        <g transform="matrix(1,0,0,1,0,60)">
                            <path d="M10,10C24.5833,11.875 48.75,37.125 80,19C111.25,0.875 126.6667,-79.2917 160,-77C193.3333,-74.7083 206.6667,19.7917 240,30C273.3333,40.2083 286.6667,-31.125 320,-28C353.3333,-24.875 366.6667,43.125 400,45C433.3333,46.875 446.6667,-17.3333 480,-19C513.3333,-20.6667 526.6667,48.6667 560,37C593.3333,25.3333 606.6667,-87.5 640,-75C673.3333,-62.5 686.6667,98.0417 720,97C753.3333,95.9583 783.3333,-43.125 800,-80" style="fill:none;fill-rule:nonzero;stroke:url(#_Linear3);stroke-width:5px;"/>
                        </g>
                        <g transform="matrix(1,0,0,1,0,30)">
                            <path d="M10,10C24.5833,11.875 48.75,37.125 80,19C111.25,0.875 126.6667,-79.2917 160,-77C193.3333,-74.7083 206.6667,19.7917 240,30C273.3333,40.2083 286.6667,-31.125 320,-28C353.3333,-24.875 366.6667,43.125 400,45C433.3333,46.875 446.6667,-17.3333 480,-19C513.3333,-20.6667 526.6667,48.6667 560,37C593.3333,25.3333 606.6667,-87.5 640,-75C673.3333,-62.5 686.6667,98.0417 720,97C753.3333,95.9583 783.3333,-43.125 800,-80" style="fill:none;fill-rule:nonzero;stroke:url(#_Linear4);stroke-width:5px;"/>
                        </g>
                        <path d="M10,10C24.5833,11.875 48.75,37.125 80,19C111.25,0.875 126.6667,-79.2917 160,-77C193.3333,-74.7083 206.6667,19.7917 240,30C273.3333,40.2083 286.6667,-31.125 320,-28C353.3333,-24.875 366.6667,43.125 400,45C433.3333,46.875 446.6667,-17.3333 480,-19C513.3333,-20.6667 526.6667,48.6667 560,37C593.3333,25.3333 606.6667,-87.5 640,-75C673.3333,-62.5 686.6667,98.0417 720,97C753.3333,95.9583 783.3333,-43.125 800,-80" style="fill:none;fill-rule:nonzero;stroke:url(#_Linear5);stroke-width:5px;"/>
                    </g>
                </g>
            </g>
        </g>
        <g transform="matrix(1.73268,0,0,1.73268,-658.178809,-334.284166)">
            <g transform="matrix(360,0,0,360,1441.605457,542.322643)">
            </g>
            <text x="593.8125px" y="542.3226px" style="font-family:'SFCompactRounded-Medium', 'SF Compact Rounded';font-weight:500;font-size:360px;">sensi</text>
        </g>
        <g transform="matrix(1.425186,0,0,1.425186,1031.066723,-452.160905)">
            <g transform="matrix(270,0,0,270,888.070301,542.322643)">
            </g>
            <text x="593.8125px" y="542.3226px" style="font-family:'SFCompactRounded-Semibold', 'SF Compact Rounded';font-weight:600;font-size:270px;">p<tspan x="750.6973px " y="542.3226px ">y</tspan></text>
        </g>
    </g>
    <defs>
        <linearGradient id="_Linear3" x1="0" y1="0" x2="1" y2="0" gradientUnits="userSpaceOnUse" gradientTransform="matrix(790,0,0,790,10,8.502523)"><stop offset="0" style="stop-color:rgb(44,136,215);stop-opacity:1"/><stop offset="1" style="stop-color:rgb(243,62,139);stop-opacity:1"/></linearGradient>
        <linearGradient id="_Linear4" x1="0" y1="0" x2="1" y2="0" gradientUnits="userSpaceOnUse" gradientTransform="matrix(790,0,0,790,10,8.502523)"><stop offset="0" style="stop-color:rgb(44,136,215);stop-opacity:1"/><stop offset="1" style="stop-color:rgb(243,62,139);stop-opacity:1"/></linearGradient>
        <linearGradient id="_Linear5" x1="0" y1="0" x2="1" y2="0" gradientUnits="userSpaceOnUse" gradientTransform="matrix(790,0,0,790,10,8.502523)"><stop offset="0" style="stop-color:rgb(44,136,215);stop-opacity:1"/><stop offset="1" style="stop-color:rgb(243,62,139);stop-opacity:1"/></linearGradient>
    </defs>
</svg>
